# File created by Blade
# Date/Time:  Wed Apr 08 17:19:54 2015
# Frame Rate: 120.000 fps
#------------------------------------------------------
:FULLY-SPECIFIED
:DEGREES
850
root 4.786476 35.735348 1.411302 4.681398 -68.727677 -12.947649
Spine 8.713154 1.360782 2.008194
Head 24.841621 17.592890 9.816312
LeftShoulder -7.623585 17.690658 14.469404
LeftArm 16.073767 22.492895 -75.908425
LeftForeArm 21.577738 -0.000000 15.688104
LeftHand -10.390218 -0.000000 -17.008022
LeftHandThumb1 -26.253704 0.000000 33.147579
RightShoulder -35.132180 -50.543362 27.594810
RightArm 53.160158 -15.133807 61.648370
RightForeArm 33.680968 -0.000000 7.139406
RightHand -3.156512 0.000000 8.207549
RightHandThumb1 -24.326973 -0.000000 -32.862282
LeftUpLeg 14.119074 26.590158 0.602829
LeftLeg 6.963645 -0.000000 -0.000000
LeftFoot -18.359797 7.983607 -0.862441
LeftToeBase 8.111917 -0.000000 -0.000000
RightUpLeg -24.961033 -12.189833 -28.211108
RightLeg 151.366106 -0.000000 -0.000000
RightFoot 39.320683 8.822097 9.990877
RightToeBase 16.491291 -0.000000 -0.000000
851
root 4.791017 35.726353 1.417448 4.836934 -69.105996 -13.069529
Spine 8.767604 1.368101 1.950497
Head 24.860667 17.555541 9.776490
LeftShoulder -7.606335 17.732976 14.449892
LeftArm 16.094319 22.511313 -75.901466
LeftForeArm 21.545042 -0.000000 15.625328
LeftHand -10.437825 -0.000000 -16.921162
LeftHandThumb1 -26.253704 0.000000 33.147579
RightShoulder -35.246184 -50.564431 27.719136
RightArm 53.179959 -15.174600 61.625253
RightForeArm 33.952453 -0.000000 7.200265
RightHand -3.065747 0.000000 8.143499
RightHandThumb1 -24.326973 -0.000000 -32.862282
LeftUpLeg 14.055263 26.956076 0.604465
LeftLeg 7.100233 -0.000000 -0.000000
LeftFoot -18.467683 7.939314 -0.909712
LeftToeBase 8.112295 -0.000000 -0.000000
RightUpLeg -24.852389 -12.505994 -28.393188
RightLeg 151.390735 -0.000000 -0.000000
RightFoot 39.392666 8.762662 10.012831
RightToeBase 16.539197 -0.000000 -0.000000
852
root 4.794184 35.717558 1.424959 4.973245 -69.509075 -13.181671
Spine 8.829362 1.369304 1.877518
Head 24.893210 17.550001 9.756925
LeftShoulder -7.594922 17.772920 14.452067
LeftArm 16.096986 22.507296 -75.933684
LeftForeArm 21.578081 -0.000000 15.534743
LeftHand -10.443391 0.000000 -16.905688
LeftHandThumb1 -26.253704 0.000000 33.147579
RightShoulder -35.340617 -50.598437 27.831884
RightArm 53.202742 -15.212853 61.608982
RightForeArm 34.196529 -0.000000 7.271999
RightHand -3.074274 -0.000000 8.067513
RightHandThumb1 -24.326973 -0.000000 -32.862282
LeftUpLeg 14.038548 27.213946 0.558335
LeftLeg 7.137519 -0.000000 -0.000000
LeftFoot -18.552752 8.045301 -0.983213
LeftToeBase 8.197604 -0.000000 -0.000000
RightUpLeg -24.723393 -12.783518 -28.619695
RightLeg 151.416869 -0.000000 -0.000000
RightFoot 39.450278 8.855612 9.951799
RightToeBase 16.638239 -0.000000 -0.000000
853
root 4.796925 35.709976 1.434613 5.152161 -69.934283 -13.336331
Spine 8.872566 1.387214 1.843865
Head 24.989349 17.565196 9.712004
LeftShoulder -7.579699 17.791032 14.417696
LeftArm 16.067312 22.513022 -75.955987
LeftForeArm 21.611525 -0.000000 15.458084
LeftHand -10.439071 -0.000000 -16.909082
LeftHandThumb1 -26.253704 0.000000 33.147579
RightShoulder -35.395875 -50.635944 27.879690
RightArm 53.173830 -15.213685 61.689527
RightForeArm 34.345567 -0.000000 7.331604
RightHand -3.051987 0.000000 8.043303
RightHandThumb1 -24.326973 -0.000000 -32.862282
LeftUpLeg 14.021588 27.728919 0.599952
LeftLeg 7.248626 -0.000000 -0.000000
LeftFoot -18.660303 7.928857 -1.012180
LeftToeBase 8.276997 -0.000000 -0.000000
RightUpLeg -24.560660 -13.024355 -28.863982
RightLeg 151.428704 -0.000000 -0.000000
RightFoot 39.374775 9.103611 9.845704
RightToeBase 17.179622 -0.000000 -0.000000
854
root 4.798005 35.703623 1.445291 5.363712 -70.350412 -13.517920
Spine 8.892530 1.411092 1.815037
Head 25.128373 17.521022 9.727898
LeftShoulder -7.561879 17.842886 14.379947
LeftArm 16.085668 22.548848 -75.953423
LeftForeArm 21.624982 -0.000000 15.376129
LeftHand -10.482891 -0.000000 -16.884482
LeftHandThumb1 -26.253704 0.000000 33.147579
RightShoulder -35.452287 -50.648509 27.935500
RightArm 53.098472 -15.223001 61.761750
RightForeArm 34.469466 0.000000 7.406246
RightHand -2.993001 -0.000000 8.036904
RightHandThumb1 -24.326973 -0.000000 -32.862282
LeftUpLeg 14.060786 27.862870 0.517547
LeftLeg 7.128339 -0.000000 -0.000000
LeftFoot -18.708571 8.144173 -1.207187
LeftToeBase 8.409227 -0.000000 -0.000000
RightUpLeg -24.412811 -13.301163 -29.090173
RightLeg 151.444409 -0.000000 -0.000000
RightFoot 39.378317 9.053314 9.943754
RightToeBase 17.406590 -0.000000 -0.000000
855
root 4.798515 35.697412 1.455147 5.571718 -70.763355 -13.692492
Spine 8.901097 1.424530 1.771163
Head 25.269946 17.492811 9.771279
LeftShoulder -7.551278 17.877302 14.369192
LeftArm 16.068303 22.576661 -75.980541
LeftForeArm 21.664357 -0.000000 15.329378
LeftHand -10.438859 -0.000000 -16.898630
LeftHandThumb1 -26.253704 0.000000 33.147579
RightShoulder -35.523678 -50.673232 28.002175
RightArm 53.069863 -15.298147 61.746520
RightForeArm 34.708706 -0.000000 7.476314
RightHand -3.015126 -0.000000 8.016398
RightHandThumb1 -24.326973 -0.000000 -32.862282
LeftUpLeg 14.085683 28.054408 0.453555
LeftLeg 7.049414 -0.000000 -0.000000
LeftFoot -18.795112 8.302615 -1.421929
LeftToeBase 8.629055 -0.000000 -0.000000
RightUpLeg -24.258148 -13.542789 -29.338914
RightLeg 151.464351 -0.000000 -0.000000
RightFoot 39.317333 8.600843 10.536086
RightToeBase 18.282218 -0.000000 -0.000000
856
root 4.797336 35.690911 1.466059 5.796401 -71.198345 -13.903981
Spine 8.929028 1.423836 1.742811
Head 25.436203 17.481427 9.788286
LeftShoulder -7.591024 17.893864 14.333313
LeftArm 16.035892 22.579144 -76.018140
LeftForeArm 21.784858 -0.000000 15.274539
LeftHand -10.396313 -0.000000 -16.920756
LeftHandThumb1 -26.253704 0.000000 33.147579
RightShoulder -35.588904 -50.723450 28.048547
RightArm 53.070372 -15.333912 61.780816
RightForeArm 34.877549 -0.000000 7.518030
RightHand -3.014047 -0.000000 7.971244
RightHandThumb1 -24.326973 -0.000000 -32.862282
LeftUpLeg 14.130131 28.354601 0.439034
LeftLeg 7.014744 -0.000000 -0.000000
LeftFoot -18.916595 8.340266 -1.676153
LeftToeBase 8.901843 -0.000000 -0.000000
RightUpLeg -24.103567 -13.823873 -29.573960
RightLeg 151.470884 -0.000000 -0.000000
RightFoot 39.457433 8.412816 10.732996
RightToeBase 18.372451 -0.000000 -0.000000
857
root 4.796730 35.685880 1.479396 6.060189 -71.615328 -14.140542
Spine 8.926050 1.416625 1.739358
Head 25.619125 17.457821 9.797094
LeftShoulder -7.627592 17.925329 14.281640
LeftArm 16.035785 22.583123 -76.033205
LeftForeArm 21.936099 -0.000000 15.216606
LeftHand -10.321294 -0.000000 -17.062629
LeftHandThumb1 -26.253704 0.000000 33.147579
RightShoulder -35.671007 -50.738698 28.088733
RightArm 53.027000 -15.361213 61.842579
RightForeArm 35.053400 0.000000 7.541994
RightHand -2.965368 -0.000000 8.007243
RightHandThumb1 -24.326973 -0.000000 -32.862282
LeftUpLeg 14.149208 28.692431 0.441283
LeftLeg 7.011938 -0.000000 -0.000000
LeftFoot -19.076864 8.319479 -1.958935
LeftToeBase 9.271379 -0.000000 -0.000000
RightUpLeg -23.931807 -14.173790 -29.774791
RightLeg 151.483454 -0.000000 -0.000000
RightFoot 39.622584 8.591552 10.308325
RightToeBase 17.578512 -0.000000 -0.000000
858
root 4.794967 35.683077 1.489335 6.429940 -72.019468 -14.472719
Spine 8.899432 1.405908 1.751792
Head 25.821819 17.414289 9.843880
LeftShoulder -7.652402 17.967203 14.234842
LeftArm 16.016108 22.560594 -76.067861
LeftForeArm 21.910795 -0.000000 15.180663
LeftHand -10.305630 0.000000 -17.085882
LeftHandThumb1 -26.253704 0.000000 33.147579
RightShoulder -35.776097 -50.746191 28.171927
RightArm 53.019846 -15.404067 61.837432
RightForeArm 35.280053 -0.000000 7.520337
RightHand -2.977218 0.000000 8.056278
RightHandThumb1 -24.326973 -0.000000 -32.862282
LeftUpLeg 14.150914 29.085186 0.498032
LeftLeg 7.037918 -0.000000 -0.000000
LeftFoot -19.231576 8.203695 -2.260067
LeftToeBase 9.566056 -0.000000 -0.000000
RightUpLeg -23.750278 -14.511666 -29.939743
RightLeg 151.480735 -0.000000 -0.000000
RightFoot 39.724295 8.587090 10.261467
RightToeBase 17.304095 -0.000000 -0.000000
859
root 4.794162 35.682104 1.493173 6.961798 -72.406302 -14.954291
Spine 8.852084 1.376524 1.801803
Head 26.014324 17.351609 9.879783
LeftShoulder -7.681459 17.989768 14.189470
LeftArm 15.970772 22.445161 -76.136590
LeftForeArm 22.027418 -0.000000 15.139266
LeftHand -10.261061 -0.000000 -17.169029
LeftHandThumb1 -26.253704 0.000000 33.147579
RightShoulder -35.789956 -50.750326 28.207678
RightArm 52.886545 -15.259267 62.094104
RightForeArm 35.289630 -0.000000 7.522942
RightHand -3.077170 0.000000 8.134815
RightHandThumb1 -24.326973 -0.000000 -32.862282
LeftUpLeg 14.162629 29.661464 0.664201
LeftLeg 7.050734 -0.000000 -0.000000
LeftFoot -19.356374 7.902168 -2.439181
LeftToeBase 9.802286 -0.000000 -0.000000
RightUpLeg -23.587853 -14.877917 -30.049117
RightLeg 151.482710 -0.000000 -0.000000
RightFoot 39.819374 8.583297 10.273325
RightToeBase 17.188440 -0.000000 -0.000000
860
root 4.791964 35.681007 1.501898 7.325799 -72.763025 -15.291435
Spine 8.834210 1.282817 1.798628
Head 26.206140 17.308599 9.924068
LeftShoulder -7.726785 18.033795 14.152714
LeftArm 15.943534 22.416046 -76.183603
LeftForeArm 21.836425 -0.000000 15.121019
LeftHand -10.355999 0.000000 -17.146263
LeftHandThumb1 -26.253704 0.000000 33.147579
RightShoulder -35.842765 -50.772790 28.255363
RightArm 52.865327 -15.294378 62.137491
RightForeArm 35.684626 -0.000000 7.534593
RightHand -3.041884 -0.000000 7.924745
RightHandThumb1 -24.326973 -0.000000 -32.862282
LeftUpLeg 14.151939 29.986250 0.725301
LeftLeg 7.121120 -0.000000 -0.000000
LeftFoot -19.502302 7.764223 -2.751061
LeftToeBase 10.010232 -0.000000 -0.000000
RightUpLeg -23.345477 -15.223822 -30.253260
RightLeg 151.464313 -0.000000 -0.000000
RightFoot 39.950366 8.700986 10.212858
RightToeBase 17.079107 -0.000000 -0.000000
861
root 4.793514 35.680844 1.507359 7.680498 -73.091293 -15.604339
Spine 8.817611 1.190754 1.774327
Head 26.340840 17.251833 9.999899
LeftShoulder -7.732388 18.039932 14.143821
LeftArm 15.891669 22.318689 -76.247408
LeftForeArm 21.903340 0.000000 15.108854
LeftHand -10.290134 -0.000000 -17.244448
LeftHandThumb1 -26.253704 0.000000 33.147579
RightShoulder -35.880335 -50.793417 28.321916
RightArm 52.781668 -15.275045 62.227741
RightForeArm 35.858037 -0.000000 7.607850
RightHand -3.094511 -0.000000 7.793916
RightHandThumb1 -24.326973 -0.000000 -32.862282
LeftUpLeg 14.085757 30.326935 0.788225
LeftLeg 7.259020 -0.000000 -0.000000
LeftFoot -19.663945 7.557258 -3.095434
LeftToeBase 10.208489 -0.000000 -0.000000
RightUpLeg -23.124464 -15.606000 -30.443845
RightLeg 151.447562 -0.000000 -0.000000
RightFoot 40.043260 8.613046 10.290920
RightToeBase 16.985705 -0.000000 -0.000000
